<?xml version="1.0" encoding="utf-8"?>
<!-- Generator: Adobe Illustrator 22.1.0, SVG Export Plug-In . SVG Version: 6.00 Build 0)  -->
<svg version="1.1" id="Ebene_1" xmlns="http://www.w3.org/2000/svg" xmlns:xlink="http://www.w3.org/1999/xlink" x="0px" y="0px"
	 viewBox="251.2 146.6 396.6 305.8" enable-background="new 251.2 146.6 396.6 305.8" xml:space="preserve">
<path fill="#F58021" d="M516.2,252.2c0-4.9,5.7-10.2,11.6-10.2c5.9,0,11.6,5.2,11.6,10.2v31.5h-8.7v-31.5c0-0.9-1.7-2-2.9-2
	c-1.2,0-2.9,1.1-2.9,2v122.3c0,1.3,1.7,2.3,2.9,2.3c1.2,0,2.9-1,2.9-2.3v-36.4h8.7v36.4c0,6.6-5.5,10.6-11.6,10.6
	c-6,0-11.6-4.1-11.6-10.6V252.2z"/>
<path fill="#F58021" d="M463.3,252.2c0-5.3,4.8-10.2,10.8-10.2c6,0,11.4,4.7,11.4,10.2v31.5h-8.8v-31.5c0-0.9-1.1-2-2.4-2
	c-1.2,0-2.7,1.1-2.7,2v23.2c0,8.3,4.2,21.6,7.6,33.1c3.4,11.5,6.9,26.5,6.9,34.8v31.1c0,7.1-5.4,10.6-11.5,10.6
	c-6,0-11.3-3.9-11.3-10.6v-36.4h8.3v36.4c0,1.2,1.2,2.3,3,2.3c1.8,0,2.8-1.1,2.8-2.3v-31.1c0-8.3-4-23.8-7.2-34.8
	s-6.9-24.8-6.9-33.1V252.2z"/>
<polygon fill="#F58021" points="413.2,242 432.3,242 432.3,249.5 423.1,249.5 423.1,305.1 432.3,305.1 432.3,312.9 423.1,312.9 
	423.1,377.1 435.7,377.1 435.7,385.1 413.2,385.1 "/>
<polygon fill="#F58021" points="359.4,242 369.2,242 375.2,308.6 375.2,242 382.6,242 382.6,385.1 375.2,385.1 366.5,299.9 
	366.5,385.1 359.4,385.1 359.4,242 "/>
<path fill="#F58021" d="M305.7,242h8.9l0.1,132.5c0,1.3,1.1,2.3,2.7,2.3c1.4,0,2.6-1,2.6-2.3L319.7,242h9.1l0.1,132.5
	c0,6.5-5.3,10.6-11.6,10.6s-11.6-3.9-11.6-10.6L305.7,242z"/>
<rect x="251.2" y="439.3" fill="#F58021" width="396.6" height="13.1"/>
<rect x="269.1" y="415.4" fill="#F58021" width="361" height="13.9"/>
<rect x="287.6" y="392.3" fill="#F58021" width="324.7" height="13.9"/>
<rect x="287.6" y="222.7" fill="#F58021" width="324.7" height="13.4"/>
<polygon fill="#F58021" points="314.8,211.5 449.5,169.9 582.3,211.5 543.2,211.5 449.5,182.5 354.3,211.5 314.8,211.5 "/>
<polygon fill="#F58021" points="287.6,196.8 449.5,146.6 612.3,196.8 612.3,211.5 449.5,162.3 287.6,211.5 287.6,196.8 "/>
<path fill="#F58021" d="M581.5,242c-6.2,0-11.5,5.2-11.5,10.2h0v121.5c0,6.7,5.3,10.6,11.4,10.6c6.1,0,11.8-4.1,11.8-10.6V252.2
	C593.1,247.3,587.7,242,581.5,242z M584.5,373.7c0,1-1.2,2.3-3.1,2.3c-1.9,0-3.1-1.4-3.1-2.3V252.2c0-0.8,1.1-2,3.1-2
	c2,0,3.1,1.1,3.1,2V373.7z"/>
</svg>
